<svg height="32" version="1.1" width="32" xmlns="http://www.w3.org/2000/svg" style="overflow: hidden; position: relative; left: -0.732946px; top: 0.508519px;" id="canvas-for-livicon-74"><desc style="-webkit-tap-highlight-color: rgba(0, 0, 0, 0);"></desc><defs style="-webkit-tap-highlight-color: rgba(0, 0, 0, 0);"></defs><path fill="#ffffff" stroke="none" d="M16,6C8.269,6,2,12.264,2,19.992C2,22.142,2.485,24.181,3.354,26H28.648C29.516,24.182,30,22.143,30,19.992C30,12.264,23.732,6,16,6ZM27.826,22H20.584C19.814,23.771,18.055,25,16,25S12.186,23.771,11.416,22H4.172C4.059,21.361,4,20.686,4,19.992C4,13.37,9.374,7.999,16,7.999C22.628999999999998,7.999,27.997999999999998,13.370000000000001,27.997999999999998,19.992C27.998,20.684,27.939,21.355,27.826,22Z" stroke-width="0" transform="matrix(1,0,0,1,0,0)" style="-webkit-tap-highlight-color: rgba(0, 0, 0, 0);"></path><path fill="#ffffff" stroke="none" d="M9,20C9,18.921,9.244,17.899,9.68,16.987000000000002C10.806,14.629,13.213,13,16,13C19.866,13,23,16.134,23,20H26C26,14.478,21.522,10,16,10C12.265,10,9.008,12.048,7.291,15.083C6.469,16.535,6,18.213,6,20H9Z" opacity="0.1" stroke-width="0" transform="matrix(1,0,0,1,0,0)" style="-webkit-tap-highlight-color: rgba(0, 0, 0, 0); opacity: 0.1;"></path><path fill="#ffffff" stroke="none" d="M7.165,15.313C6.804,16.006,6.53,16.672,6.338,17.362000000000002C6.111,18.18,6,19.031,6,20H9C9,19.463,9.053,18.956,9.16,18.47C9.268,17.98,9.431000000000001,17.511,9.649000000000001,17.052999999999997L7.165,15.313ZM17.404,18.576C18.196,19.355,18.189,20.632,17.414,21.414C16.635,22.203000000000003,15.376000000000001,22.197000000000003,14.595000000000002,21.424000000000003C14.325000000000003,21.160000000000004,13.564000000000002,18.970000000000002,13.172000000000002,18.586000000000002L8.594,14C8.199,13.611,8.341,12.834,8.591,12.583C8.84,12.333,9.607999999999999,12.189,10.001,12.578L14.587,17.172C14.979,17.561,17.143,18.314,17.404,18.576Z" stroke-width="0" transform="matrix(1,0,0,1,0,0)" style="-webkit-tap-highlight-color: rgba(0, 0, 0, 0);"></path></svg>